<svg viewBox="0 0 3031 1283" xmlns="http://www.w3.org/2000/svg" fill-rule="evenodd" clip-rule="evenodd" stroke-linejoin="round" stroke-miterlimit="1.4">
    <path d="M3007.8 770.5c0 102.7-22.2 259-38 297-4.7 12.6-28.4 28.4-36.3 28.4-6.3 0-11-6.3-9.4-15.8 12.6-63.2 36.3-213.2 36.3-285.8 0-93.3-12.6-145.3-28.4-170.6-7.9-12.7-33.2-26.9-45.8-26.9-60 0-178.6 83.7-263.8 208.5-14.3 22.2-22.2 34.8-30.1 47.4-15.8 25.3-49 4.8-50.6-14.2-3.1-82.1-20.5-334.9-39.4-423.4-3.2-12.7 6.3-17.4 23.6-17.4 17.4 0 25.3 8 27 15.8 15.7 68 28.4 297 31.5 347.6 0 6.3 1.6 14.2 6.3 14.2 7.9 0 156.4-224.3 300.2-224.3 39.5 0 80.6 26.8 91.7 50.5 11 23.7 25.2 107.5 25.2 167.5v1.5zm-1200.2 241.8c-7.8 0-34.4-9.4-34.4-14a36222.6 36222.6 0 0 1 0-951.1c0-6.3 11-22 20.4-22 10.9 0 28 11 28 17.3-3 131.3-4.6 335-4.6 529 0 170.4 1.6 337.6 4.7 417.3 0 12.6-7.8 23.5-14 23.5zm-1168-545.8C570.5 628.8 456.9 887.6 433.3 950c-4.4 9.8 1.5 26.2 1.5 36 0 11.5-8.3 21-23 20.8-7.4 0-18.3.4-22.2-11.6-21.4-65.3-106.9-317-169-480.6C127 268 48.1 112 20.1 94c-16.1-9.8-2.9-37.7 6-41 11.7-5 28-1.6 42.6 14.8C124.6 133.3 211 340.4 395.8 864c3.4 9.7 13.3 8.2 16.2 1.6 35.3-85.2 141-322.3 195.3-448.6 78-182 168.7-358.6 182-373.4a45.2 45.2 0 0 1 35.3-16.3c14.6 0 26.4 13 17.6 24.5C812.8 91.2 722 276.3 639.6 466.5zm1342 530.3c-7.8 0-34.4-9.4-34.4-14a36500 36500 0 0 1-3-449.2c0-192.3 1.5-344.3 3-471 0-6.2 11-21.8 20.4-21.8 10.9 0 28.1 11 28.1 17.2-3 131.3-4.7 298.9-4.7 492.8 0 170.4 1.6 342.8 4.7 422.5 0 12.5-7.8 23.5-14 23.5zm558.5-40.5c1 10.9-22.2 34.7-37.8 36-65.4 5.5-290.6-16.2-379.2-149-54.6-82-42.1-200.3-21.8-244 54.7-118.8 200.1-195.4 278.3-195.4 20.3 0 34.4 11 34.4 29.7 0 9.3-9.4 17.1-18.8 17.1-145.4 11-254.8 118.9-254.8 192.3 0 7.9 1.5 15.7 10.9 15.7 34.4 0 143.9 0 242.4 3.1 36 1.6 4.6 45.3-20.4 45.3H2145c-6.2 0-9.5 11-9.3 17.3 2.8 129 153.2 218 378 216.8 14.2 0 25.6 5.7 26.3 13.5l.1 1.6zm-1850.6-243c-6.3 0-9.4 11-9.4 17.3 0 95.4 92.2 195.4 278.3 209.5 14 1.5 25 7.8 25 15.6v1.6c0 11-25 32.8-40.7 32.8-65.6 0-220.4-54.7-275.1-140.7-53.2-82.9-42.2-200.1-21.9-243.9C700.4 486.7 845.8 410 924 410c20.3 0 34.4 11 34.4 29.8 0 9.4-9.4 17.2-18.8 17.2-145.3 10.9-254.8 118.8-254.8 192.3 0 7.8 1.5 15.6 11 15.6 34.3 0 143.8 0 242.3 3.1 36 1.6 4.6 45.4-20.4 45.4H689.5zm701.6 0c-6.2 0-9.4 11-9.4 17.3C1381.7 826 1474 926 1660 940c14.1 1.5 25 7.8 25 15.6v1.6c0 11-25 32.8-40.6 32.8-65.6 0-220.4-54.7-275.2-140.7-53.1-82.9-42.2-200.1-21.9-243.9 54.8-118.8 200.2-195.5 278.4-195.5 20.3 0 34.3 11 34.3 29.8 0 9.4-9.3 17.2-18.7 17.2-145.4 10.9-254.8 118.8-254.8 192.3 0 7.8 1.5 15.6 10.9 15.6 34.4 0 143.8 0 242.3 3.1 36 1.6 4.7 45.4-20.3 45.4h-228.3zm-57.9-243.8c0 11-10.9 31.2-23.4 34.4-36 9.3-112.6 31.3-150.1 45.3a79 79 0 0 0-51.6 70.4c-3.1 32.8-1.5 89.1-1.5 162.6 0 40.6 1.5 148.5 6.2 184.5 1.5 9.3-4.7 12.5-21.9 12.5-18.8 0-29.7-11-29.7-18.8 0-142.3 0-411.2 4.7-519 0-7.9 20.3-14.1 26.6-14.1 12.5 0 21.8 4.7 21.8 14 0 6.3-1.5 43.8-1.5 59.4 0 6.3 6.2 14 17.2 14 14 0 140.7-46.8 183-62.4 7.7-3.1 20.2 7.8 20.2 15.6v1.6zm-72.7 726.7c0 10.2-7.4 21.6-15.9 26.7a76 76 0 0 1-29.3 7.8c-1.5 0-2.3 1.2-2.3 4.4-.4 8 .6 27.7-.4 42.4 0 1.6-3.6 5.1-6.1 5.1-3.2 0-6.9-2.3-6.9-3.7.4-17.7 1-37 1-62.5 0-19.7 0-42.3.2-47.8 0-2.5 5.7-5 7.3-5 6 0 21.4.1 31.8 4.6 11.6 5 20.6 16 20.6 27.8v.2zm-688 64.8c0 3.7-5.2 6.3-8.4 6.3-1.6 0-3.5-2-3.3-3.7 1-9 1.2-21.5 1.2-26.6 0-1.5-1.2-2.5-2.8-3-20.6-3.8-36.3-14-39.9-27.2a37 37 0 0 1 .8-18c4.3-12.7 23-26 42.3-29 3.9-.2 8.2 3 8.2 7 0 1.4-1.6 3.8-3.1 3.8-13.4 1.2-30 9.8-33.8 19.5-2 4.7-2 12.5.2 16.5a34.3 34.3 0 0 0 27 15c1 0 1.6-1.3 1.9-2.8 1-8.7 0-21.7.3-24.6.2-2.4 4-3.8 6-3.6 3.9.4 7.8 2.6 7 6.1-1.8 9.7-3 37.6-3.5 64.3zm2041-146.2c0 1-3.2 4.5-4.7 4.5a20 20 0 0 0-16.1 8.5c-3.4 4.7-7.3 15.3-7.3 34 0 1.5.4 2.3 2 2.5 4.7.2 10.5.2 16.3.2 1.1 0 2.7 2.2 2.7 3.5 0 1.8-2.7 6-3.5 6.3-2.6 1-10.8.8-15.8.8-1.1 0-2.3 1.2-2.3 2.6v53.6c0 1.8-4 5.2-5.5 5.2-2.8 0-7.3-1.6-7.3-3.2.2-20-.2-51.7.4-73 .4-22.3 6.5-38 16.1-46.1a33.8 33.8 0 0 1 18.7-6.9c1.8 0 6.3 4 6.3 7.3v.2zm166.3 55c0 .8-2.5 5-6 6.1-3.8 1.2-10.5.4-14.4.6-2.4.2-3.6 1.4-3.6 3.3-.4 17.5.4 39.7-.4 46.6-.3 4.3-5 8-7.2 8-1.4 0-5.3-2.7-5.1-4.4.6-10.3.8-36.2.8-51.5 0-1-1.2-2-3.4-2-5.3 0-9.8 0-14.5.2-2.8.2-5.8-4.3-5.8-7 0-1.5 1.3-3.4 2.2-3.8 2.8-1 11 .2 17.5-.2 2.4-.2 4-.8 4.2-2.6.1-4.9-.7-21.4-.7-26.5 0-1.8 4.4-3.5 6.3-3.5 3.2 0 7 2.7 7 5-.3 5.2-1 16.2-1 23.9 0 2.5.7 3.9 2.1 3.9 5.3 0 13.8 0 19.5-1 1.5-.2 2.5 2.6 2.5 4.7v.2zm-1458.1 0c0 .8-2.6 5-6.1 6.1-3.7 1.2-10.4.4-14.4.6-2.3.2-3.5 1.4-3.5 3.3-.4 17.5.4 39.7-.4 46.6-.4 4.3-5 8-7.3 8-1.3 0-5.3-2.7-5-4.4.5-10.3.7-36.2.7-51.5 0-1-1.2-2-3.3-2-5.3 0-9.9 0-14.6.2-2.7.2-5.7-4.3-5.7-7 0-1.5 1.2-3.4 2.2-3.8 2.8-1 11 .2 17.5-.2 2.4-.2 4-.8 4.1-2.6.2-4.9-.6-21.4-.6-26.5 0-1.8 4.4-3.5 6.3-3.5 3.2 0 6.9 2.7 6.9 5-.2 5.2-1 16.2-1 23.9 0 2.5.8 3.9 2.2 3.9 5.3 0 13.7 0 19.4-1 1.6-.2 2.6 2.6 2.6 4.7v.2zm-908.4 33.8a25 25 0 0 1-3.1 11.2c-6.3 9.3-23.4 18-38.4 19.1-2.1.2-7.2-2.4-7.2-5.3 0-1.8.8-6.1 2.1-6.1 18.5-.4 32.5-8.3 32.5-18.5 0-7.3-10.6-13.8-27-18.3-3-1-2.7-8.8-.6-10a37.5 37.5 0 0 0 17.2-13.5c1.1-2.2 2-4.8 2-7.7 0-2.6-.9-5-1.9-6.5-3.9-5.3-15.3-8.3-22.7-8.8-1 0-1.8 1.1-2 2.1-.6 5.5-.2 18.5-.2 32.5 0 13.9-.4 42.2-1.6 51-.4 3.4-5.3 6.1-9 6.1-2 0-5.1-2.3-4.8-4.5 1.4-9.6 2.4-30.3 2.4-50.7 0-11.2.2-28.3-.4-35.2-.2-2.3-1.4-4.3-3.7-5-1.6-.5-2.4-2.2-2.4-4.2 0-3.1 2.2-7.3 4.1-6.7 4.2 1.4 12.4 2.2 25.2 4.3 14.8 2.8 24.2 8.3 28.3 13.8 1 1.4 2.6 6.3 2.6 8.8 0 3-.6 8.1-2.2 10.8a41.5 41.5 0 0 1-15.7 14.6c-1 .6-1.2 1-1.2 1.4 0 .4.4 1.1 1.4 1.5 7.8 2.6 18.7 7.5 23.6 14.4a18 18 0 0 1 2.7 9.2v.2zm1412.1 30.1c-1.7.2-4.9-.8-6.3-2.4-5.8-7-15.9-23.4-19.4-29-.6-.8-1.4-1.2-2.6-1.2-8.4 0-39.7 3.3-44.2 7.2-2.2 1.8-9 10.3-11 12.4-7.5 9.8-12.8 11.8-15.3 11.8-4.1 0-7.3-4.9-7.1-6.3 1.2-4.3 13.4-12 22-24.2 13.2-17.8 29.1-57.1 29.1-63.6 0-3-1.6-4.4-2.6-7.3-1-2.6 3.6-5.7 7.3-6.3 1.6-.2 6.9.2 7.5 2.5 2.2 8.5 8.2 27 20.4 52.1 12 24.8 24.4 41.5 30.1 46 3.4 2.4-3.1 8.3-7.9 8.3zm890.5-65.9c.2 1.8-1.7 5.5-3.1 5.5-18.9 0-31.8 11-31.8 24.8 0 13 11 23.6 31.8 27 1.4.3 2 1.7 2 2.9 0 3-8.7 6.3-12.4 5.5-19-2.4-35.8-18.5-35.8-36.4 0-15.7 17.3-36 42.7-36 2.7 0 6.4 3.8 6.6 6.5v.2zm-1583.7 0c.2 1.8-1.8 5.5-3.2 5.5-18.9 0-31.8 11-31.8 24.8 0 13 11 23.6 31.8 27 1.4.3 2 1.7 2 2.9 0 3-8.7 6.3-12.4 5.5-19-2.4-35.8-18.5-35.8-36.4 0-15.7 17.3-36 42.7-36 2.7 0 6.5 3.8 6.7 6.5v.2zm1039.7 0c.2 1.8-1.8 5.5-3.2 5.5-18.8 0-31.8 11-31.8 24.8 0 13 11 23.6 31.8 27 1.4.3 2 1.7 2 2.9 0 3-8.6 6.3-12.4 5.5-19-2.4-35.7-18.5-35.7-36.4 0-15.7 17.3-36 42.6-36 2.8 0 6.5 3.8 6.7 6.5v.2zm-1266.3 60.6c0 3-6 5.3-7.8 5.1-18.1-.8-42.7-6.3-57.4-23.8a44.5 44.5 0 0 1-9.4-27.3c0-8.3 2.3-17.1 6.4-24.2 10.4-17.5 36.6-31.4 59-31.4 3 0 7.3 3.7 7.3 6.8 0 2-3.6 5.2-5.7 5.6-23 2.3-38.8 10.6-47 22.5a36 36 0 0 0-5.7 17.5c0 8.9 3.5 18.1 8.5 24 8.2 9.5 25.7 17.3 47.3 19.3 2.8.4 4.5 2.5 4.5 5.7v.2zm-438.2 5.1c-9.2 0-27.7-5.9-35.8-17.5a36.4 36.4 0 0 1-3.1-32.8c6.9-14.2 24.5-25.2 36.5-25.2 3.8 0 7.1 2.8 7.1 7.5a3 3 0 0 1-3 3c-15.5 1.1-27 11.3-27.6 19.2 0 1 .3 1.6 1.5 1.8 3.6.2 15.6.2 26 .6 5 .2.4 10-3.6 9.8-10-.2-18 0-23.6-.2-.7 0-1.1 1-1.1 1.8 0 9.8 10.2 19.6 31 21.6 1.8.2 3.2 2.3 2.8 4.1-.8 2.6-4.3 6.3-7.1 6.3zm712.5 0c-9.2 0-27.7-5.9-35.8-17.5a36.4 36.4 0 0 1-3-32.8c6.8-14.2 24.5-25.2 36.5-25.2 3.7 0 7 2.8 7 7.5a3 3 0 0 1-2.9 3c-15.5 1.1-27.1 11.3-27.7 19.2 0 1 .4 1.6 1.5 1.8 3.6.2 15.6.2 26 .6 5.1.2.4 10-3.5 9.8-10-.2-18.1 0-23.6-.2-.8 0-1.2 1-1.2 1.8 0 9.8 10.2 19.6 31 21.6 1.8.2 3.2 2.3 2.8 4.1-.8 2.6-4.3 6.3-7 6.3zm1318.8 0c-9.3 0-27.8-5.9-35.8-17.5a36.4 36.4 0 0 1-3.2-32.8c7-14.2 24.6-25.2 36.6-25.2 3.8 0 7 2.8 7 7.5a3 3 0 0 1-2.9 3c-15.5 1.1-27 11.3-27.7 19.2 0 1 .4 1.6 1.6 1.8 3.5.2 15.5.2 26 .6 5 .2.3 10-3.6 9.8-10-.2-18 0-23.6-.2-.8 0-1.2 1-1.2 1.8 0 9.8 10.3 19.6 31.1 21.6 1.8.2 3.1 2.3 2.7 4.1-.7 2.6-4.3 6.3-7 6.3zm152.2 0c-9.3 0-27.8-5.9-35.8-17.5a36.4 36.4 0 0 1-3.2-32.8c7-14.2 24.6-25.2 36.6-25.2 3.7 0 7 2.8 7 7.5a3 3 0 0 1-2.9 3c-15.5 1.1-27.1 11.3-27.7 19.2 0 1 .4 1.6 1.6 1.8 3.5.2 15.5.2 26 .6 5 .2.3 10-3.6 9.8-10-.2-18 0-23.6-.2-.8 0-1.2 1-1.2 1.8 0 9.8 10.2 19.6 31 21.6 1.8.2 3.2 2.3 2.8 4.1-.8 2.6-4.3 6.3-7 6.3zm-630.4 0c-9.3 0-27.7-5.9-35.8-17.5a36.4 36.4 0 0 1-3.1-32.8c6.9-14.2 24.5-25.2 36.5-25.2 3.8 0 7.1 2.8 7.1 7.5a3 3 0 0 1-3 3c-15.5 1.1-27 11.3-27.7 19.2 0 1 .4 1.6 1.6 1.8 3.6.2 15.6.2 26 .6 5 .2.4 10-3.6 9.8-10-.2-18 0-23.6-.2-.7 0-1.1 1-1.1 1.8 0 9.8 10.2 19.6 31 21.6 1.8.2 3.2 2.3 2.8 4.1-.8 2.6-4.3 6.3-7.1 6.3zm222.4-1.4c-1.8 1.2-5.5 1.8-6.5.4-4-4.5-7-10.8-9.6-10.8-3.8 0-22.6 8.7-38.6 8.7-4.7 0-9.6-7.5-9.6-10.9 0-12.5 23.6-32.2 23.6-38 0-3-3.7-11.1-9.6-17.4-1.6-1.6 3-6.7 7.8-7.3 2.6-.4 6.1.4 7 2 3.4 6.9 7.8 19 18.4 35.6a229.4 229.4 0 0 0 21.6 29.5c1.6 1.7-1.2 6.3-4.5 8.2zm-1555.1 0c-1.8 1.2-5.5 1.8-6.5.4-4-4.5-7-10.8-9.6-10.8-3.8 0-22.6 8.7-38.5 8.7-4.8 0-9.7-7.5-9.7-10.9 0-12.5 23.6-32.2 23.6-38 0-3-3.7-11.1-9.6-17.4-1.6-1.6 3-6.7 7.8-7.3 2.6-.4 6.1.4 7 2 3.5 6.9 7.8 19 18.4 35.6a228 228 0 0 0 21.6 29.5c1.6 1.7-1.2 6.3-4.5 8.2zm1767.2-73.3c0 17-21.4 32.8-36.4 34.8-1.1.2-5.7-3.7-5.7-5.3 0-2.2 1.4-5.3 3-5.5 15-3 25-14 25-22.2a20 20 0 0 0-8.9-15.6 38.5 38.5 0 0 0-20.6-5.3c-1.4 0-3 1-3 2.6 0 8 .2 24 0 42.5 0 19-.2 37.7-1.2 42-.5 2.4-4.3 6.5-6.8 6.5-1.8 0-6.7-4.3-6.5-5.5 1.2-6.7 1.4-29.5 1.5-52.7.3-11 0-33.6-.7-35.8-.6-1.5-4-2.7-4-4.9 0-3.9 2.6-7.4 4.2-7.4 13 0 36.7 1.2 48 10 7 5.7 12.1 14 12.1 21.6v.2zm-128.8 37.5c0 12.6-1.5 26.4-3.5 31.1-1.2 2.6-6.5 5.7-8.9 5.7-1.1 0-3.1-1.4-2.9-2.8 1.2-6.4 2.6-16.5 2.6-27.6a49 49 0 0 0-3-19.7 5.4 5.4 0 0 0-4.5-3.2c-7.5 0-18.3 14.6-29.3 34.4a80 80 0 0 0-5.7 13.6c-1.6 4-10.6.2-10.6-2.5-.4-10.3-.8-47.4-2.8-59.2-.6-2.4 3.6-4.5 6-4.5 3.3 0 6.8 2.3 7.2 4 .8 4.2.8 27.6.8 33.3 0 1.2.4 2.4 1.2 2.4 2.5 0 19.4-35.6 36-35.6 6 0 12.1 3.3 14 6.9a75.4 75.4 0 0 1 3.4 23.6v.1zm-810.3 0c0 12.6-1.5 26.4-3.5 31.1-1.2 2.6-6.5 5.7-8.9 5.7-1.1 0-3.1-1.4-2.9-2.8 1.2-6.4 2.6-16.5 2.6-27.6 0-11-1.8-17.4-3-19.7a5.4 5.4 0 0 0-4.5-3.2c-7.5 0-18.3 14.6-29.3 34.4a80 80 0 0 0-5.7 13.6c-1.6 4-10.6.2-10.6-2.5-.4-10.3-.8-47.4-2.8-59.2-.6-2.4 3.6-4.5 6-4.5 3.3 0 6.8 2.3 7.2 4 .8 4.2.8 27.6.8 33.3 0 1.2.4 2.4 1.2 2.4 2.5 0 19.4-35.6 36-35.6 6 0 12.1 3.3 14 6.9a75.4 75.4 0 0 1 3.4 23.6v.1zm-449 0a111 111 0 0 1-3.6 31.1c-1.1 2.6-6.5 5.7-8.8 5.7-1.2 0-3.2-1.4-3-2.8 1.2-6.4 2.6-16.5 2.6-27.6a49 49 0 0 0-3-19.7 5.2 5.2 0 0 0-4.5-3.2c-7.4 0-18.3 14.6-29.3 34.4a81 81 0 0 0-5.7 13.6c-1.5 4-10.6.2-10.6-2.5-.4-10.3-.8-47.4-2.7-59.2-.6-2.4 3.5-4.5 5.9-4.5 3.3 0 6.8 2.3 7.2 4 .8 4.2.8 27.6.8 33.3 0 1.2.4 2.4 1.2 2.4 2.6 0 19.5-35.6 36-35.6 6 0 12.2 3.3 14.1 6.9a75.5 75.5 0 0 1 3.4 23.6v.1zm-295.8 0c0 12.6-1.5 26.4-3.5 31.1-1.2 2.6-6.5 5.7-8.8 5.7-1.2 0-3.2-1.4-3-2.8 1.2-6.4 2.6-16.5 2.6-27.6 0-11-1.8-17.4-3-19.7-.8-1.8-2.7-3.2-4.5-3.2-7.5 0-18.3 14.6-29.3 34.4a80 80 0 0 0-5.7 13.6c-1.5 4-10.6.2-10.6-2.5-.4-10.3-.8-47.4-2.7-59.2-.6-2.4 3.5-4.5 5.8-4.5 3.4 0 7 2.3 7.3 4 .8 4.2.8 27.6.8 33.3 0 1.2.4 2.4 1.2 2.4 2.5 0 19.4-35.6 36-35.6 6 0 12.2 3.3 14.1 6.9a75.5 75.5 0 0 1 3.3 23.6v.1zm2203 0a111 111 0 0 1-3.6 31.1c-1.1 2.6-6.4 5.7-8.8 5.7-1.2 0-3.1-1.4-3-2.8 1.2-6.4 2.6-16.5 2.6-27.6a49 49 0 0 0-3-19.7 5.2 5.2 0 0 0-4.5-3.2c-7.4 0-18.3 14.6-29.3 34.4-2 3.2-4.7 10.5-5.7 13.6-1.5 4-10.6.2-10.6-2.5-.4-10.3-.8-47.4-2.7-59.2-.6-2.4 3.5-4.5 5.9-4.5 3.3 0 6.9 2.3 7.2 4 .8 4.2.8 27.6.8 33.3 0 1.2.4 2.4 1.2 2.4 2.6 0 19.5-35.6 36-35.6 6 0 12.2 3.3 14.1 6.9a75.4 75.4 0 0 1 3.4 23.6v.1zm-412.9-27.5c0 4.5-2.6 7.9-4.3 8.3a112 112 0 0 0-17.1 4.1c-3.6 1.2-6 4.7-6.5 9.3-.2 3.5-.2 10.8-.2 18.2 0 5.1.2 15.2.8 19.7 0 1.6-2.4 4.3-5.5 4.3-3.4 0-7.5-2-7.5-3.5-.2-17.3 0-49.4.4-64.1 0-2.2 4-4 6.7-4 2 0 5.5 1 5.5 2.2v6.7c0 1 .8 1.8 2 1.8 1.7 0 15.9-5.3 20.6-7 2.5-1 5.1 2 5.1 3.8v.2zm-478.2 0c0 4.5-2.5 7.9-4.3 8.3a112 112 0 0 0-17.1 4.1c-3.5 1.2-5.9 4.7-6.5 9.3-.2 3.5-.2 10.8-.2 18.2 0 5.1.2 15.2.8 19.7 0 1.6-2.3 4.3-5.5 4.3-3.3 0-7.5-2-7.5-3.5-.2-17.3 0-49.4.4-64.1 0-2.2 4-4 6.7-4 2 0 5.5 1 5.5 2.2v6.7c0 1 .8 1.8 2 1.8 1.7 0 15.9-5.3 20.6-7 2.6-1 5.1 2 5.1 3.8v.2zm722-2c0 16-.4 48.8-1.6 61.4-.2 1.8-4.9 3.7-7.3 4-3.3 0-6.8-3.2-6.6-4.6 1.2-16.1 2-44.4 2.5-61.7 0-2 3.6-4.2 5.1-4.2 3.2 0 7.9 3 7.9 5v.2zm-1458.2 0c0 16-.3 48.8-1.5 61.4-.2 1.8-5 3.7-7.3 4-3.3 0-6.9-3.2-6.7-4.6 1.2-16.1 2-44.4 2.6-61.7 0-2 3.5-4.2 5-4.2 3.2 0 8 3 8 5v.2zm-737.7 0c0 16-.3 48.8-1.5 61.4-.2 1.8-5 3.7-7.3 4-3.3 0-6.9-3.2-6.7-4.6 1.2-16.1 2-44.4 2.6-61.7 0-2 3.5-4.2 5-4.2 3.2 0 8 3 8 5v.2zm1498.3 0c0 16-.4 48.8-1.6 61.4-.2 1.8-4.9 3.7-7.3 4-3.3 0-6.8-3.2-6.6-4.6 1.2-16.1 2-44.4 2.5-61.7 0-2 3.6-4.2 5.1-4.2 3.2 0 7.9 3 7.9 5v.2zM502 1226.3c0 3.2-2.8 5.7-3.7 5.7-3.2 0-9.7-1.6-9.7-4.1 0-13.4-.2-33.8-.4-52.9v-62.5c0-1.2 3.4-5.9 6.3-5.9 2 0 7.1 1.6 7.1 4.2-.4 14.7-.2 41.8-.2 68 0 19.4.4 37.5.6 47.3v.2zm1450.3 5.3c-1.2 0-3.8-1.7-3.6-3.3a179 179 0 0 0 2.2-25.6c0-9.2-1-15.3-2.2-16.9-.8-1-1.8-2.3-4.3-2.3-10.4 0-31.8 42.4-36 44.8-2.7 1.6-10.4-.8-11-2.8-1.6-7.6-.6-36.5-1.4-42.2-.3-2.2-1-2.6-2.5-2.6-8.3 0-29.9 43-35.6 47.8-2.7 2.1-12.2 1.2-12.2-1.2a837 837 0 0 1-.4-62.3c.2-1.8 4.8-4.5 7.3-4.5 2.2 0 6.5 1.8 6 4.3a732 732 0 0 0-.9 42c0 1.2 1.2 1.6 2 1 3.3-2.3 20.4-36.7 32-42 2-1.2 6.5-1 9.5 0 2.9.8 5.8 3 6.6 5.5 1.6 4.7 0 32.6 1 37.3.2 1 .8 1.6 1.6 1.2 4-4 22.6-41.5 38-41.5 5.4 0 11.7 3.4 13.1 7.1a153.2 153.2 0 0 1-1 49.7c-.4 1.6-5.5 6.5-8.2 6.5zM1433 1193c0 20.8-18.3 37.5-32.7 37.5-26.5 0-38.7-17.3-38.7-31.4 0-6.7 2.2-16.1 6-21.8a40 40 0 0 1 33.3-16.5 38 38 0 0 1 19.3 6.7 31.1 31.1 0 0 1 12.8 25.3v.2zm-449.1 0c0 20.8-18.3 37.5-32.6 37.5-26.6 0-38.8-17.3-38.8-31.4 0-6.7 2.2-16.1 6-21.8a40 40 0 0 1 33.3-16.5c5.6 0 13.6 2.7 19.3 6.7a31.1 31.1 0 0 1 12.8 25.3v.2zm1907.2 0c0 20.8-18.3 37.5-32.6 37.5-26.6 0-38.8-17.3-38.8-31.4 0-6.7 2.2-16.1 6-21.8a40 40 0 0 1 33.4-16.5c5.5 0 13.5 2.7 19.2 6.7a31.1 31.1 0 0 1 12.8 25.3v.2zm-2224.7 18.9c0-1.8-11-18.9-12.4-18.9-1.6 0-16.3 15.3-16.3 21.6 0 2.2 1.5 4.7 3.7 4.7 9.8 0 25-5.5 25-7.2v-.2zm1555 0c0-1.8-11-18.9-12.3-18.9-1.6 0-16.3 15.3-16.3 21.6 0 2.2 1.5 4.7 3.7 4.7 9.8 0 25-5.5 25-7.2v-.2zm-974-17.1c0-10.8-12.8-19.7-30-19.7-2 0-3.6 1-3.8 3-.2 2.1-.6 10.8-.6 19.4 0 10.4 0 16.2.4 18.3.2 2 3.9 3 6 3 6.1 0 12.8-1.8 18-5.1 6.6-4 10-10.7 10-18.7v-.2zm1631.5-2.2c0-6.3-2.7-11-6.9-14.3-5-4-10.4-6.1-16.5-6.1a22 22 0 0 0-13.7 4.7 23.3 23.3 0 0 0-8.9 18.5 24 24 0 0 0 8.5 19.2c3.3 2.6 7 4 12.3 4 7.5 0 14-2 18.1-6.1a27 27 0 0 0 7.1-19.7v-.2zm-1907.2 0c0-6.3-2.7-11-6.9-14.3-5-4-10.4-6.1-16.5-6.1a22 22 0 0 0-13.8 4.7 23.3 23.3 0 0 0-8.8 18.5 24 24 0 0 0 8.5 19.2c3.3 2.6 7 4 12.3 4 7.5 0 14-2 18.1-6.1a27 27 0 0 0 7.1-19.7v-.2zm449 0c0-6.3-2.7-11-6.8-14.3a26 26 0 0 0-16.5-6.1 22 22 0 0 0-13.8 4.7 23.3 23.3 0 0 0-8.8 18.5 24 24 0 0 0 8.4 19.2 19 19 0 0 0 12.4 4c7.5 0 14-2 18.1-6.1a27 27 0 0 0 7-19.7v-.2zm203-23c-4.5 0-8.6 2-12.7 6a24 24 0 0 0-6.6 16.3c0 9 9 15.2 17.3 15.2 6.3 0 16.5-2.7 18.7-10l.9-3a31 31 0 0 0 1.8-7.8v-.3c0-9.3-10.2-16.3-19.3-16.3zm155.5-12.4c-.5-1.1-2.5-.6-2.9.4-3.1 7.1-11.2 27.2-15.1 34-1 1.4.2 3 1.3 2.8 5.2-.6 19.7-3 27.6-3.8 2.3-.1 3-1.5 2-3.7l-12.9-29.7zM611 1138.4c0 4.7-4.7 7.4-9 7.4-3.8 0-6.1-4.5-6.1-7.8a7 7 0 0 1 6.9-7.1c3.7 0 8.2 2.5 8.2 7.3v.2zm737.7 0c0 4.7-4.7 7.4-9 7.4-3.8 0-6.1-4.5-6.1-7.8a7 7 0 0 1 6.9-7.1c3.7 0 8.2 2.5 8.2 7.3v.2zm760.6 0c0 4.7-4.7 7.4-9 7.4-3.8 0-6.2-4.5-6.2-7.8 0-3.8 3.2-7.1 7-7.1 3.6 0 8.2 2.5 8.2 7.3v.2zm697.6 0c0 4.7-4.8 7.4-9 7.4-3.8 0-6.2-4.5-6.2-7.8 0-3.8 3.2-7.1 6.9-7.1s8.3 2.5 8.3 7.3v.2z" fill="#75828a"/>
</svg>
