<svg viewBox="0 0 2800 1100" xmlns="http://www.w3.org/2000/svg" fill-rule="evenodd" clip-rule="evenodd" stroke-linejoin="round" stroke-miterlimit="1.4">
    <path d="M2664.8 743.4c0 88-19 221.9-32.5 254.4-4 10.8-24.4 24.3-31.1 24.3-5.4 0-9.5-5.4-8.1-13.5 10.8-54.2 31.1-182.7 31.1-245 0-79.8-10.8-124.5-24.3-146.2-6.8-10.8-28.5-23-39.3-23-51.4 0-153 71.8-226.1 178.8-12.2 19-19 29.8-25.7 40.6-13.6 21.6-42 4-43.4-12.2-2.7-70.4-17.6-287-33.8-362.9-2.7-10.8 5.4-14.9 20.3-14.9s21.7 6.8 23 13.6c13.5 58.2 24.4 254.5 27 297.9 0 5.4 1.4 12.1 5.5 12.1 6.8 0 134-192.2 257.3-192.2 33.8 0 69 23 78.5 43.3 9.5 20.3 21.7 92 21.7 143.5v1.4zM1636.3 950.5c-6.7 0-29.5-8-29.5-12a30083.8 30083.8 0 0 1 0-815.1c0-5.4 9.4-18.8 17.4-18.8 9.4 0 24.1 9.4 24.1 14.8-2.6 112.5-4 287.2-4 453.3 0 146 1.4 289.4 4 357.7 0 10.7-6.6 20.1-12 20.1zm-1001-467.8c-59.2 139.1-156.6 361-176.8 414.4-3.7 8.4 1.3 22.5 1.3 31 0 9.7-7 18-19.7 17.7-6.3 0-15.7.4-19-10-18.4-56-91.6-271.6-144.9-411.8C196 312.7 128.4 179 104.5 163.5c-13.9-8.5-2.5-32.4 5-35.2 10.1-4.2 24-1.4 36.6 12.7 47.9 56.2 121.8 233.7 280.3 682.4 3 8.3 11.3 7 13.9 1.4 30.2-73 120.7-276.2 167.4-384.4 66.8-156 144.5-307.4 155.9-320a39 39 0 0 1 30.2-14c12.6 0 22.7 11.2 15.2 21-25.3 33.7-103 192.4-173.7 355.3zm1150.1 454.5c-6.7 0-29.4-8-29.4-12-1.4-100.5-2.7-248.3-2.7-385 0-164.8 1.3-295 2.7-403.5 0-5.4 9.3-18.8 17.4-18.8 9.3 0 24.1 9.4 24.1 14.8-2.7 112.5-4 256.1-4 422.3 0 146 1.3 293.8 4 362.1 0 10.7-6.7 20.1-12 20.1zm478.6-34.7c.8 9.4-19 29.8-32.4 31-56 4.6-249-14-324.9-127.9-46.8-70.2-36.2-171.5-18.8-209 47-101.9 171.6-167.5 238.5-167.5 17.5 0 29.5 9.4 29.5 25.4 0 8-8 14.8-16 14.8-124.7 9.4-218.5 101.8-218.5 164.8 0 6.7 1.4 13.4 9.4 13.4 29.5 0 123.3 0 207.7 2.7 30.8 1.3 4 38.8-17.4 38.8h-195.6c-5.4 0-8.2 9.4-8 14.8 2.4 110.6 131.2 186.8 324 185.8 12 0 21.9 4.9 22.4 11.6l.1 1.3zM678 694.3c-5.3 0-8 9.4-8 14.8 0 81.7 79 167.5 238.5 179.5 12 1.4 21.5 6.7 21.5 13.4v1.4c0 9.3-21.5 28.1-34.9 28.1-56.2 0-188.9-46.9-235.8-120.6-45.5-71-36.2-171.5-18.7-209C687.4 500 812 434.4 879 434.4c17.4 0 29.4 9.4 29.4 25.5 0 8-8 14.7-16 14.7C767.8 484 674 576.4 674 639.4c0 6.7 1.4 13.4 9.4 13.4 29.5 0 123.3 0 207.7 2.7 30.8 1.3 4 38.8-17.4 38.8H678zm601.4 0c-5.4 0-8 9.4-8 14.8 0 81.7 79 167.5 238.4 179.5 12.1 1.4 21.5 6.7 21.5 13.4v1.4c0 9.3-21.5 28.1-34.9 28.1-56.2 0-188.9-46.9-235.8-120.6-45.5-71-36.2-171.5-18.7-209 46.8-101.8 171.5-167.5 238.5-167.5 17.4 0 29.4 9.4 29.4 25.5 0 8-8 14.7-16 14.7-124.6 9.4-218.5 101.8-218.5 164.8 0 6.7 1.4 13.4 9.4 13.4 29.5 0 123.3 0 207.7 2.7 30.8 1.3 4 38.8-17.4 38.8h-195.6zm-49.7-209c0 9.4-9.3 26.8-20 29.5-30.9 8-96.5 26.8-128.7 38.9a67.7 67.7 0 0 0-44.2 60.3c-2.7 28-1.3 76.3-1.3 139.3 0 34.8 1.3 127.3 5.3 158.1 1.4 8-4 10.7-18.7 10.7-16.1 0-25.5-9.4-25.5-16 0-122 0-352.4 4-444.9 0-6.7 17.4-12 22.8-12 10.7 0 18.8 4 18.8 12 0 5.4-1.4 37.5-1.4 51 0 5.3 5.4 12 14.8 12 12 0 120.6-40.2 156.7-53.6 6.7-2.7 17.5 6.7 17.5 13.4v1.3z" fill="#231f20"/>
</svg>
